<svg width="354" height="72" viewBox="0 0 354 72" fill="none" xmlns="http://www.w3.org/2000/svg">
  <g transform="translate(4 4) scale(1)">
    <path d="M25 4.5h14c3.04 0 5.5 2.46 5.5 5.5v9.5H54c3.04 0 5.5 2.46 5.5 5.5v14c0 3.04-2.46 5.5-5.5 5.5h-9.5V54c0 3.04-2.46 5.5-5.5 5.5H25A5.5 5.5 0 0 1 19.5 54v-9.5H10A5.5 5.5 0 0 1 4.5 39V25c0-3.04 2.46-5.5 5.5-5.5h9.5V10A5.5 5.5 0 0 1 25 4.5Z" fill="#2563EB"/>
    <path d="M39 4.5c3.04 0 5.5 2.46 5.5 5.5v9.5H54c3.04 0 5.5 2.46 5.5 5.5v14c0 3.04-2.46 5.5-5.5 5.5h-9.5V54c0 3.04-2.46 5.5-5.5 5.5H32V4.5h7Z" fill="#14B8A6" opacity=".92"/>
    <path d="M19 43V35.5M28.5 43V30M38 43V24.5" stroke="white" stroke-width="3.4" stroke-linecap="round"/>
    <path d="M14.5 39.5 24 31l8 3.8 13.5-14" stroke="white" stroke-width="3.4" stroke-linecap="round" stroke-linejoin="round"/>
    <path d="m39.6 20.8 7.3-1.7-1.7 7.3" stroke="white" stroke-width="3.4" stroke-linecap="round" stroke-linejoin="round"/>
    <circle cx="14.5" cy="39.5" r="3" fill="#CFFAFE" stroke="white" stroke-width="1.6"/>
    <circle cx="24" cy="31" r="3" fill="#CFFAFE" stroke="white" stroke-width="1.6"/>
    <circle cx="32" cy="34.8" r="3" fill="#CFFAFE" stroke="white" stroke-width="1.6"/>
  </g>
  <text x="82" y="42" fill="#123C78" font-family="Inter, Arial, sans-serif" font-size="31" font-weight="800" letter-spacing="-1.7">Stunt</text>
  <text x="159" y="42" fill="#14AFA6" font-family="Inter, Arial, sans-serif" font-size="31" font-weight="800" letter-spacing="-1.7">Lytics</text>
  <text x="83" y="58" fill="#64748B" font-family="Inter, Arial, sans-serif" font-size="8" font-weight="700" letter-spacing="1.55">CHILD GROWTH INTELLIGENCE</text>
</svg>
